<?xml version="1.0" encoding="UTF-8"?>
<svg id="Layer_2" data-name="Layer 2" xmlns="http://www.w3.org/2000/svg" xmlns:xlink="http://www.w3.org/1999/xlink" viewBox="0 0 841.45 114.29">
  <defs>
    <style>
      .cls-1 {
        fill: url(#linear-gradient-2);
      }

      .cls-2 {
        fill: url(#linear-gradient);
      }
    </style>
    <linearGradient id="linear-gradient" x1="174.45" y1="69.96" x2="841.45" y2="69.96" gradientUnits="userSpaceOnUse">
      <stop offset="0" stop-color="#06275c"/>
      <stop offset="1" stop-color="#01ccea"/>
    </linearGradient>
    <linearGradient id="linear-gradient-2" x1="76.25" y1="117.08" x2="76.25" y2="4.48" gradientUnits="userSpaceOnUse">
      <stop offset="0" stop-color="#06275c"/>
      <stop offset=".75" stop-color="#01ccea"/>
      <stop offset=".95" stop-color="#e9c976"/>
    </linearGradient>
  </defs>
  <g id="Layer_1-2" data-name="Layer 1">
    <path class="cls-2" d="M617.45,80.24v-47.5c3.75-3.11,10.26-.83,15-1.5v75.5c-2.33,2.41-10.09,2.11-12.55.55l-40.45-49.05v48.5c-3.75,3.11-10.26.83-15,1.5V31.24l13.57.93,39.43,48.07ZM470.46,71.74c3.02,44.09,67.28,51.24,80.27,10.29,9.48-29.86-13.51-53.98-43.49-51.49-21.15,1.76-38.27,19.45-36.78,41.2ZM516.87,95.16c-37.39,5.05-41.27-48.77-7.62-51.67,34.26-2.95,37.36,47.65,7.62,51.67ZM250.95,31.24l-1.5,1.5v74l1.5,1.5h55c3.01-3.17.92-8.86,1.5-13h-43v-20h35.5c2.39-2.7,2.43-10.19,0-13h-35.5v-18h41v-13h-54.5ZM401.45,108.24l14.56-.94.64-19.36,10.31-11.7,26.99,32h16c.11,0,2-1.45,1.02-2l-32.38-40.68,30.86-34.33h-17.5l-35.49,36-.14-34.37-2.36-1.64h-12.5v77ZM649.45,31.24v75.5l1.5,1.5h56.5v-13h-43v-20h36v-13h-36v-18h41v-13h-56ZM392.95,108.24c.12,0,1.95-1.43,1.07-2.04l-33.67-73.36-2.39-1.61c-3.33.53-11.87-1.19-14.02.99-.89.91-2.85,5.67-3.66,7.34-10.69,21.9-19.52,44.81-30.39,66.64-.89.61.94,2.04,1.07,2.04h14.5l7.6-18.06,36.74.22,8.66,17.84h14.5ZM338.45,78.24l13.5-29.99,13.5,29.99c-9.16.75-17.99-1.64-27,0ZM735.45,106.72c.49,2.49,12.43,1.65,15.04,1.06l8.62-17.38c10.62.69,23.59-1.45,33.9-.21,1.25.15,1.94,0,2.96,1.04,2.87,2.92,4.94,14.72,8.48,16.52l14.03.02-33.13-74.92-2.38-1.62-13.36.17-34.15,75.32ZM764.45,78.24l12.01-30c1.41.09,1.55,1.52,2.02,2.46,2.88,5.68,8.7,17.82,10.5,23.5.43,1.35.62,2.62.47,4.03h-25ZM211.95,85.24c1.92,0,9.66-2.23,11.87-3.13,19.69-8.06,20.26-37.77,1.53-47.27-1.32-.67-9.58-3.6-10.4-3.6h-40.5v75.5c3.75,3.11,10.26.83,15,1.5v-23h22.5ZM189.45,44.24h22.5c2.03,0,7.54,3.25,8.96,5.04,3.53,4.45,3.75,13.56-.03,17.89-1.09,1.24-7.68,5.07-8.93,5.07h-22.5v-28ZM826.45,31.24v75.5c3.2,2.41,11.68,2.45,15,0V31.24h-15ZM716.93,92.22c-8.54,7.67,3.41,23.57,13.22,14.72s-4.27-22.76-13.22-14.72Z"/>
    <path class="cls-1" d="M110.44,114.17h42.05l-48.85-76.89h-2.13s-16.63,25.42-16.63,25.42c-1.31-2.34-3.62-4.37-3.96-7.05-1.95-15.45,1.35-35.14.07-51.17,0-.03,0-.05,0-.07l-7.63-4.4-15.19,24.56,13.36-7.86v40.48c0,.36-3.82,4.88-4.32,5.88l-16.19-25.85-2.16.07L0,114.17h42.05l13.36-20.44,3.49,9.86-6.24,10.58,7.74-.11c4.47-7,8.89-16.19,13.92-22.63.59-.75,1.13-1.71,2.24-1.59,1.84.39,11.94,18.96,14.28,21.92,2.55,3.22,4.3,2.47,8.2,2.41l-5.45-10.58,3.49-9.86,13.36,20.44ZM105.34,52.86l35.36,55.02-10.28-1.11-9.57-14.8c-1.41-3.34.76-6.81-3.31-9.26-1.54-.93-2.74-.47-4.27-2.02-.43-.43-4.27-6.78-4.45-7.34-.65-2.12-.04-4.29-.69-6.38-.48-1.52-2.28-2.43-2.64-3.65-.84-2.81.26-7.38-.15-10.45ZM102.98,76.44c1.52,1.87,4.93,6.08,5.69,8.09.7,1.84-.95,3.46.69,6.36,1.55,2.75,4.47,2.21,6.23,3.98,2.57,2.58,5.32,9.84,7.82,13h-9.05s-14.2-21.2-14.2-21.2l2.81-10.23ZM21.23,107.49l-9.44.38,35.36-54.23c.13,3.62.17,6.92-1.01,10.38-1.29,3.79-1.49,6.1-2.48,9.31-.17.57-4.42,7.51-4.77,7.8-1.15.97-2.47.67-3.47,1.25-4.53,2.64-2.44,5.36-3.55,9.03-.25.84-4.44,7.6-5.28,8.87-1.63,2.46-3.6,4.84-5.36,7.22ZM38.96,107.15c-2.46,1.61-6.95.36-9.88.73-.61-.5,7.7-12.8,8.29-13.32,1.71-1.53,4.29-1.01,5.77-3.66,1.39-2.49.46-4.45,1.06-6.8.44-1.69,3.77-6.32,5.31-7.65l3.11,9.85c-.04,1.25-12.37,20.01-13.66,20.86ZM56.98,79.58c-.38-1.68-1.75-3.53-1.95-5.17-.31-2.45,1.23-4.52.63-6.8-.42-1.6-2.6-2.9-2.96-4.95-.46-2.6.26-5.89-.04-8.61l1.56-.39,7.53,12.93c-.03,5.27-1.46,8.95-4.77,13.01ZM89.6,96.87c-2.23-2.47-6.4-7.3-7.47-10.28-.6-1.66.37-2.62.24-4.08-.49-5.59-8.04-7.27-11.21-2.91-2.15,2.95-.17,4.24-.99,6.81-.36,1.12-4.17,7.23-5.06,8.37-.68.87-.79,1.62-2.22,1.31-.4-2.66-3.43-6.95-2.82-9.44.23-.94,5.51-9.47,6.29-10.26,2.19-2.19,6.61-2.43,6.8-6.63.05-1.21-.68-2.57-.45-3.63.33-1.53,2.94-3.28,2.76-5.4,1.39.66,3.89,4.24,4.32,5.54.58,1.78-1.08,2.83.5,5.75,1.77,3.28,3.61,2.08,5.19,3.06,1.41.87,5.19,9.64,7.14,11.38l-3.01,10.43ZM91.36,73.51c-.21-.82-.7-6.78-.56-7.39.16-.71,5.94-10.05,6.81-11.17.68-.88.8-1.63,2.22-1.31.29,1.27-.74,2.53-.72,3.61.08,4.87,2.17,6-2.23,10.34-.16,4.41,1.57,7.93-1.36,11.98-.94-1.61-3.74-4.51-4.15-6.07Z"/>
  </g>
</svg>